<svg xmlns="http://www.w3.org/2000/svg" version="1.1" xmlns:xlink="http://www.w3.org/1999/xlink" width="512" height="512" x="0" y="0" viewBox="0 0 64 64" style="enable-background:new 0 0 512 512" xml:space="preserve" class=""><g><path fill="#99aece" d="M60 37V27h-4.53a23.53 23.53 0 0 0-3.34-8.06l3.2-3.2-7.07-7.07-3.2 3.2A23.53 23.53 0 0 0 37 8.53V4H27v4.53a23.53 23.53 0 0 0-8.06 3.34l-3.2-3.2-7.07 7.07 3.2 3.2A23.53 23.53 0 0 0 8.53 27H4v10h4.53a23.53 23.53 0 0 0 3.34 8.06l-3.2 3.2 7.07 7.07 3.2-3.2A23.53 23.53 0 0 0 27 55.47V60h10v-4.53a23.53 23.53 0 0 0 8.06-3.34l3.2 3.2 7.07-7.07-3.2-3.2A23.53 23.53 0 0 0 55.47 37z" opacity="1" data-original="#99aece" class=""></path><circle cx="32" cy="32" r="20" fill="#dbdbdb" opacity="1" data-original="#dbdbdb" class=""></circle><circle cx="32" cy="32" r="17" fill="#f7c23c" opacity="1" data-original="#f7c23c"></circle><path fill="#a0d34f" d="m32 48-1.37-5.68c-1.25-5.18-6.12-9.79-11.59-11l-4-.85C15 31 15 31.48 15 32a17 17 0 0 0 34 0c0-.52 0-1-.07-1.55l-4 .85c-5.47 1.19-10.34 5.8-11.59 11z" opacity="1" data-original="#a0d34f"></path><path fill="#7ba835" d="M48.84 30.47a17 17 0 0 1-16.18 14.77L32 48l-.66-2.72a17 17 0 0 1-16.18-14.81h-.09C15 31 15 31.48 15 32a17 17 0 0 0 34 0c0-.52 0-1-.07-1.55z" opacity="1" data-original="#7ba835"></path><path fill="#9a5d40" d="M23 22v8l9 4 9-4v-8" opacity="1" data-original="#9a5d40"></path><path fill="#b6a698" d="M23 22v8l9 4V22z" opacity="1" data-original="#b6a698"></path><path fill="#7a4830" d="m32 18-9 4 9 4 9-4z" opacity="1" data-original="#7a4830"></path></g></svg>