<svg width="512" height="512" viewBox="0 0 512 512" fill="none" xmlns="http://www.w3.org/2000/svg">
<path d="M256 149.333C256.177 132.806 260.111 116.535 267.503 101.751C274.894 86.9677 285.551 74.0585 298.667 64M424.96 264.107C414.293 361.173 369.493 448 324.053 448C294.4 448 287.573 426.667 256 426.667C224.427 426.667 217.387 448 187.947 448C142.507 448 97.7067 361.173 87.04 264.107C79.5733 195.2 96.8533 152.32 138.667 134.827C192 112.427 222.08 149.333 256 149.333C289.92 149.333 320 112.427 373.12 134.827C414.933 152.32 432.64 195.2 424.96 264.107Z" stroke="#59B512" stroke-width="25" stroke-linecap="round" stroke-linejoin="round"/>
</svg>
