<svg width="512" height="512" viewBox="0 0 512 512" fill="none" xmlns="http://www.w3.org/2000/svg">
<path d="M293.548 318.293C340.059 318.464 386.007 308.108 427.948 288C435.68 284.104 441.717 277.511 444.918 269.467C448.118 261.422 448.262 252.484 445.32 244.341C442.378 236.198 436.555 229.415 428.951 225.274C421.348 221.133 412.491 219.921 404.054 221.867C373.591 228.947 342.234 231.392 311.041 229.12C239.148 222.933 193.494 172.373 172.588 149.333M85.3343 128V85.3333C85.3343 79.6754 87.5819 74.2492 91.5827 70.2484C95.5835 66.2476 101.01 64 106.668 64H149.334C154.992 64 160.418 66.2476 164.419 70.2484C168.42 74.2492 170.668 79.6754 170.668 85.3333C170.668 98.1333 170.668 114.773 170.668 128C168.671 161.672 175.492 195.282 190.458 225.512C205.423 255.741 228.014 281.545 256.001 300.373C298.668 328.32 362.668 333.867 405.334 334.293C416.65 334.293 427.503 338.789 435.504 346.79C443.506 354.792 448.001 365.644 448.001 376.96C447.98 385.084 445.641 393.034 441.257 399.874C436.873 406.715 430.627 412.161 423.254 415.573C365.868 441.173 221.441 488.96 117.121 380.16C21.3343 279.04 85.3343 128 85.3343 128Z" stroke="#59B512" stroke-width="25" stroke-linecap="round" stroke-linejoin="round"/>
</svg>
