<svg width="512" height="512" viewBox="0 0 512 512" fill="none" xmlns="http://www.w3.org/2000/svg">
<path d="M256 64C293.974 64 331.095 75.2606 362.669 96.3578C394.244 117.455 418.853 147.441 433.385 182.525C447.917 217.608 451.719 256.213 444.311 293.457C436.902 330.702 418.616 364.913 391.764 391.764C364.913 418.616 330.702 436.902 293.457 444.311C256.213 451.719 217.608 447.917 182.525 433.385C147.441 418.853 117.455 394.244 96.3578 362.669C75.2606 331.095 64 293.974 64 256C64 205.078 84.2285 156.242 120.235 120.235C156.242 84.2285 205.078 64 256 64V64ZM298.667 222.72C249.6 211.84 234.667 149.333 187.093 178.56C135.04 213.333 170.667 256 188.373 283.947C206.08 311.893 225.707 363.093 283.093 330.88C320.64 309.547 341.12 318.507 350.293 282.453C359.467 246.4 325.76 228.907 298.667 222.72V222.72Z" stroke="#59B512" stroke-width="25" stroke-linecap="round" stroke-linejoin="round"/>
</svg>
